<!-- <svg width="204" height="204" viewBox="0 0 204 204" fill="none" xmlns="http://www.w3.org/2000/svg">
<path d="M187.639 69.9021C193.092 67.8586 199.226 70.6143 200.696 76.2484C206.238 97.4863 204.802 120.051 196.436 140.546C186.737 164.31 168.435 183.543 145.182 194.409C121.928 205.275 95.4333 206.975 70.9821 199.169C46.5309 191.364 25.9211 174.628 13.2642 152.299C0.607328 129.97 -3.16618 103.69 2.6965 78.7016C8.55918 53.7134 23.627 31.854 44.8941 17.4842C66.1612 3.11439 92.0641 -2.7094 117.435 1.17464C139.317 4.52444 159.415 14.8827 174.791 30.5466C178.869 34.702 178.083 41.3805 173.529 45.009C168.975 48.6374 162.385 47.8272 158.195 43.7832C146.212 32.2155 130.877 24.5642 114.244 22.0179C94.1181 18.9368 73.5701 23.5566 56.6994 34.9558C39.8288 46.355 27.8758 63.6955 23.2251 83.518C18.5744 103.34 21.5679 124.188 31.6082 141.901C41.6486 159.614 57.9979 172.89 77.3943 179.082C96.7908 185.274 117.809 183.925 136.255 175.305C154.701 166.686 169.219 151.429 176.914 132.578C183.273 116.999 184.584 99.9117 180.815 83.688C179.497 78.0164 182.187 71.9457 187.639 69.9021Z" fill="url(#paint0_linear_16_339)"/>
<path d="M66.08 99.16C66.08 103.804 69.32 107.512 74.036 107.512C74.648 107.512 75.08 107.44 75.332 107.296L69.896 115H77.528L83.072 106.18C84.476 103.912 85.376 101.32 85.376 98.98C85.376 93.724 81.308 89.8 75.728 89.8C70.256 89.8 66.08 93.76 66.08 99.16ZM72.416 98.908C72.416 97.072 73.892 95.668 75.764 95.668C77.636 95.668 79.076 97.108 79.076 98.944C79.076 100.78 77.636 102.184 75.764 102.184C73.892 102.184 72.416 100.744 72.416 98.908ZM94.3971 104.92C94.9371 104.056 95.9811 103.372 97.3131 103.372C99.1491 103.372 100.481 104.668 100.481 106.432C100.481 108.196 99.1491 109.6 97.3131 109.6C95.4051 109.6 94.3611 108.34 94.2531 107.224H87.9171C88.0251 112.228 91.6971 115.504 97.4211 115.504C102.785 115.504 106.889 111.508 106.889 106.108C106.889 101.644 103.685 97.936 98.9691 97.936C97.4211 97.936 96.0531 98.332 94.8651 99.088L95.3331 95.92H105.161V90.304H90.3651L88.5291 103.696L94.3971 104.92ZM121.357 96.028C121.357 92.608 118.585 89.944 115.021 89.944C111.457 89.944 108.685 92.608 108.685 96.028C108.685 99.448 111.457 102.112 115.021 102.112C118.585 102.112 121.357 99.448 121.357 96.028ZM117.109 96.028C117.109 97.288 116.209 98.152 115.021 98.152C113.833 98.152 112.933 97.288 112.933 96.028C112.933 94.768 113.833 93.904 115.021 93.904C116.209 93.904 117.109 94.768 117.109 96.028ZM134.857 90.268H129.349L110.989 115H116.497L134.857 90.268ZM124.489 109.24C124.489 112.66 127.261 115.324 130.825 115.324C134.389 115.324 137.161 112.66 137.161 109.24C137.161 105.82 134.389 103.156 130.825 103.156C127.261 103.156 124.489 105.82 124.489 109.24ZM128.737 109.24C128.737 107.98 129.637 107.116 130.825 107.116C132.013 107.116 132.913 107.98 132.913 109.24C132.913 110.5 132.013 111.364 130.825 111.364C129.637 111.364 128.737 110.5 128.737 109.24Z" fill="white"/>
<defs>
<linearGradient id="paint0_linear_16_339" x1="-12.4348" y1="91.2145" x2="228.124" y2="92.098" gradientUnits="userSpaceOnUse">
<stop stop-color="#AA367C"/>
<stop offset="1" stop-color="#4A2FBD"/>
</linearGradient>
</defs>
</svg> -->

<svg xmlns="http://www.w3.org/2000/svg" x="0px" y="0px" width="100" height="100" viewBox="0 0 50 50">
    <path d="M 28.1875 0 C 30.9375 6.363281 18.328125 10.292969 17.15625 15.59375 C 16.082031 20.464844 24.648438 26.125 24.65625 26.125 C 23.355469 24.109375 22.398438 22.449219 21.09375 19.3125 C 18.886719 14.007813 34.535156 9.207031 28.1875 0 Z M 36.5625 8.8125 C 36.5625 8.8125 25.5 9.523438 24.9375 16.59375 C 24.6875 19.742188 27.847656 21.398438 27.9375 23.6875 C 28.011719 25.558594 26.0625 27.125 26.0625 27.125 C 26.0625 27.125 29.609375 26.449219 30.71875 23.59375 C 31.949219 20.425781 28.320313 18.285156 28.6875 15.75 C 29.039063 13.324219 36.5625 8.8125 36.5625 8.8125 Z M 19.1875 25.15625 C 19.1875 25.15625 9.0625 25.011719 9.0625 27.875 C 9.0625 30.867188 22.316406 31.089844 31.78125 29.25 C 31.78125 29.25 34.296875 27.519531 34.96875 26.875 C 28.765625 28.140625 14.625 28.28125 14.625 27.1875 C 14.625 26.179688 19.1875 25.15625 19.1875 25.15625 Z M 38.65625 25.15625 C 37.664063 25.234375 36.59375 25.617188 35.625 26.3125 C 37.90625 25.820313 39.84375 27.234375 39.84375 28.84375 C 39.84375 32.46875 34.59375 35.875 34.59375 35.875 C 34.59375 35.875 42.71875 34.953125 42.71875 29 C 42.71875 26.296875 40.839844 24.984375 38.65625 25.15625 Z M 16.75 30.71875 C 15.195313 30.71875 12.875 31.9375 12.875 33.09375 C 12.875 35.417969 24.5625 37.207031 33.21875 33.8125 L 30.21875 31.96875 C 24.351563 33.847656 13.546875 33.234375 16.75 30.71875 Z M 18.1875 35.9375 C 16.058594 35.9375 14.65625 37.222656 14.65625 38.1875 C 14.65625 41.171875 27.371094 41.472656 32.40625 38.4375 L 29.21875 36.40625 C 25.457031 37.996094 16.015625 38.238281 18.1875 35.9375 Z M 11.09375 38.625 C 7.625 38.554688 5.375 40.113281 5.375 41.40625 C 5.375 48.28125 40.875 47.964844 40.875 40.9375 C 40.875 39.769531 39.527344 39.203125 39.03125 38.9375 C 41.933594 45.65625 9.96875 45.121094 9.96875 41.15625 C 9.96875 40.253906 12.320313 39.390625 14.5 39.8125 L 12.65625 38.75 C 12.113281 38.667969 11.589844 38.636719 11.09375 38.625 Z M 44.625 43.25 C 39.226563 48.367188 25.546875 50.222656 11.78125 47.0625 C 25.542969 52.695313 44.558594 49.535156 44.625 43.25 Z"></path>
    </svg>